<svg width="58" height="23" viewBox="0 0 58 23" fill="none" xmlns="http://www.w3.org/2000/svg">
<path fill-rule="evenodd" clip-rule="evenodd" d="M47.2344 15.1758V22.5799H41.5553V22.4648C42.1202 22.2651 42.5843 22.041 42.9478 21.7922L41.5553 19.0354V12.6815L42.9478 9.92466C42.5971 9.66838 42.133 9.44068 41.5553 9.24157V0H47.2344V10.3973C47.8806 9.86339 48.6109 9.44987 49.4255 9.15668C50.24 8.86349 51.0659 8.7169 51.9032 8.7169C52.968 8.7169 53.9214 8.94882 54.7632 9.41267C55.6051 9.87652 56.2717 10.5045 56.7632 11.2965C57.2546 12.0886 57.5004 12.9878 57.5004 13.9943V22.5799H51.8213V15.1758C51.8213 14.5019 51.612 13.9615 51.1933 13.5545C50.7747 13.1475 50.2195 12.9441 49.5278 12.9441C49.0728 12.9441 48.6723 13.036 48.3265 13.2197C47.9807 13.4035 47.7122 13.6617 47.5211 13.9943C47.3299 14.3269 47.2344 14.7207 47.2344 15.1758ZM34.635 9.59682C34.8356 9.49586 35.0423 9.40166 35.2551 9.31421C36.2244 8.916 37.2778 8.7169 38.4155 8.7169C39.3074 8.7169 40.172 8.83505 41.0093 9.07135C41.2014 9.12556 41.3834 9.1823 41.5553 9.24157V12.6815L41.0912 13.6005C40.6361 13.3029 40.0537 13.1541 39.3438 13.1541C38.6703 13.1541 38.122 13.2985 37.6988 13.5873C37.2756 13.8761 36.9661 14.2306 36.7705 14.6507C36.5748 15.0708 36.477 15.4734 36.477 15.8584C36.477 16.3398 36.593 16.7861 36.8251 17.1975C37.0571 17.6088 37.3916 17.9392 37.8285 18.1886C38.2653 18.4381 38.7795 18.5628 39.3711 18.5628C39.7351 18.5628 40.0696 18.5168 40.3745 18.4249C40.6794 18.333 40.9183 18.2302 41.0912 18.1164L41.5553 19.0354V22.4648C41.3848 22.5251 41.205 22.5832 41.0161 22.639C40.2016 22.8797 39.3438 23 38.4428 23C37.3689 23 36.3518 22.814 35.3917 22.4421C34.4315 22.0701 33.5828 21.5559 32.8456 20.8995C32.1085 20.2432 31.5283 19.4839 31.1051 18.6219C30.6819 17.7598 30.4703 16.843 30.4703 15.8716C30.4703 15.0904 30.6161 14.3302 30.9077 13.5909C30.9903 13.6134 31.0743 13.6385 31.1597 13.6661C31.6193 13.8149 32.0174 14.0118 32.3542 14.2568L34.7296 9.6621C34.6987 9.64001 34.6672 9.61825 34.635 9.59682ZM21.4056 16.6489L23.9175 22.5799H27.0847V15.9897C27.0847 15.5434 27.2167 15.1277 27.4806 14.7426C27.7445 14.3575 28.0926 14.0446 28.5249 13.8039C28.9572 13.5633 29.4146 13.4429 29.8969 13.4429C30.2082 13.4429 30.5451 13.4923 30.9077 13.5909C30.9559 13.4688 31.008 13.3473 31.0641 13.2263C31.46 12.373 32.0152 11.6072 32.7296 10.9289C33.2871 10.3996 33.9223 9.95558 34.635 9.59682C34.2593 9.34648 33.7948 9.14069 33.2415 8.97945C32.6409 8.80441 32.0721 8.7169 31.5351 8.7169C30.7069 8.7169 29.9037 8.92038 29.1256 9.32734C28.3475 9.7343 27.6672 10.301 27.0847 11.0274V9.13699H21.4056V16.6489ZM6.47084 22.5799L7.82234 18.9829H16.0952L17.4467 22.5799H21.4056V16.6489L14.7437 0.91895H9.17385L0 22.5799H6.47084ZM9.87008 13.9155L11.9588 8.76941L14.0475 13.9155H9.87008Z" fill="white"/>
</svg>
